name Walk10.mot
datacolumns 19
datarows 17
range 2.72600000 2.74200000
endheader

                time	   L_ground_force_vx	   L_ground_force_vy	   L_ground_force_vz	   L_ground_force_px	   L_ground_force_py	   L_ground_force_pz	   R_ground_force_vx	   R_ground_force_vy	   R_ground_force_vz	   R_ground_force_px	   R_ground_force_py	   R_ground_force_pz	   L_ground_torque_x	   L_ground_torque_y	   L_ground_torque_z	   R_ground_torque_x	   R_ground_torque_y	   R_ground_torque_z	
          2.72600000	          0.00000000	          0.00000000	          0.00000000	          0.00000000	          0.00000000	          0.00000000	          0.00000000	          0.00000000	          0.00000000	          0.00000000	          0.00000000	          0.00000000	          0.00000000	          0.00000000	          0.00000000	          0.00000000	          0.00000000	          0.00000000	
          2.72700000	          0.00000000	          0.00000000	          0.00000000	          0.00000000	          0.00000000	          0.00000000	          0.00000000	          0.00000000	          0.00000000	          0.00000000	          0.00000000	          0.00000000	          0.00000000	          0.00000000	          0.00000000	          0.00000000	          0.00000000	          0.00000000	
          2.72800000	          0.00000000	          0.00000000	          0.00000000	          0.00000000	          0.00000000	          0.00000000	          0.00000000	          0.00000000	          0.00000000	          0.00000000	          0.00000000	          0.00000000	          0.00000000	          0.00000000	          0.00000000	          0.00000000	          0.00000000	          0.00000000	
          2.72900000	          0.00000000	          0.00000000	          0.00000000	          0.00000000	          0.00000000	          0.00000000	         -3.03256271	         10.37144508	          1.60074363	         -0.30888191	          0.00000000	         -0.04798405	          0.00000000	          0.00000000	          0.00000000	          0.00000000	         -0.00235394	          0.00000000	
          2.73000000	          0.00000000	          0.00000000	          0.00000000	          0.00000000	          0.00000000	          0.00000000	         -5.05090922	         23.38723406	          3.09161358	         -0.30519590	          0.00000000	         -0.04825083	          0.00000000	          0.00000000	          0.00000000	          0.00000000	          0.01156475	          0.00000000	
          2.73100000	          0.00000000	          0.00000000	          0.00000000	          0.00000000	          0.00000000	          0.00000000	         -7.28245313	         42.84329921	          5.09329914	         -0.30316558	          0.00000000	         -0.04867253	          0.00000000	          0.00000000	          0.00000000	          0.00000000	          0.03676006	          0.00000000	
          2.73200000	          0.00000000	          0.00000000	          0.00000000	          0.00000000	          0.00000000	          0.00000000	         -9.35631552	         69.01844304	          7.52846943	         -0.30188598	          0.00000000	         -0.04918137	          0.00000000	          0.00000000	          0.00000000	          0.00000000	          0.07865943	          0.00000000	
          2.73300000	          0.00000000	          0.00000000	          0.00000000	          0.00000000	          0.00000000	          0.00000000	        -10.92836621	        101.32939578	         10.25484306	         -0.30113915	          0.00000000	         -0.04949375	          0.00000000	          0.00000000	          0.00000000	          0.00000000	          0.13956231	          0.00000000	
          2.73400000	          0.00000000	          0.00000000	          0.00000000	          0.00000000	          0.00000000	          0.00000000	        -11.73610247	        137.74718513	         13.01045604	         -0.30075903	          0.00000000	         -0.04949168	          0.00000000	          0.00000000	          0.00000000	          0.00000000	          0.21152352	          0.00000000	
          2.73500000	          0.00000000	          0.00000000	          0.00000000	          0.00000000	          0.00000000	          0.00000000	        -11.67367800	        174.84103454	         15.43449559	         -0.30054143	          0.00000000	         -0.04926650	          0.00000000	          0.00000000	          0.00000000	          0.00000000	          0.27949249	          0.00000000	
          2.73600000	          0.00000000	          0.00000000	          0.00000000	          0.00000000	          0.00000000	          0.00000000	        -10.84556232	        208.76931039	         17.17780919	         -0.30033058	          0.00000000	         -0.04896312	          0.00000000	          0.00000000	          0.00000000	          0.00000000	          0.32984797	          0.00000000	
          2.73700000	          0.00000000	          0.00000000	          0.00000000	          0.00000000	          0.00000000	          0.00000000	         -9.53161631	        236.58398630	         18.00044597	         -0.30008444	          0.00000000	         -0.04867715	          0.00000000	          0.00000000	          0.00000000	          0.00000000	          0.35275981	          0.00000000	
          2.73800000	          0.00000000	          0.00000000	          0.00000000	          0.00000000	          0.00000000	          0.00000000	         -8.08496028	        256.99236516	         17.80111426	         -0.29984402	          0.00000000	         -0.04844962	          0.00000000	          0.00000000	          0.00000000	          0.00000000	          0.34336547	          0.00000000	
          2.73900000	          0.00000000	          0.00000000	          0.00000000	          0.00000000	          0.00000000	          0.00000000	         -6.82338131	        270.29154962	         16.61872487	         -0.29965037	          0.00000000	         -0.04830179	          0.00000000	          0.00000000	          0.00000000	          0.00000000	          0.30530591	          0.00000000	
          2.74000000	          0.00000000	          0.00000000	          0.00000000	          0.00000000	          0.00000000	          0.00000000	         -5.96176890	        277.80615906	         14.62643940	         -0.29949281	          0.00000000	         -0.04824278	          0.00000000	          0.00000000	          0.00000000	          0.00000000	          0.24955006	          0.00000000	
          2.74100000	          0.00000000	          0.00000000	          0.00000000	          0.00000000	          0.00000000	          0.00000000	         -5.60349367	        281.29271445	         12.08766590	         -0.29931845	          0.00000000	         -0.04825409	          0.00000000	          0.00000000	          0.00000000	          0.00000000	          0.18866398	          0.00000000	
          2.74200000	          0.00000000	          0.00000000	          0.00000000	          0.00000000	          0.00000000	          0.00000000	         -5.76991126	        282.56359084	          9.27604809	         -0.29907480	          0.00000000	         -0.04829096	          0.00000000	          0.00000000	          0.00000000	          0.00000000	          0.13393378	          0.00000000	
